<svg width="157" height="30" viewBox="0 0 157 30" fill="none" xmlns="http://www.w3.org/2000/svg">
<path fill-rule="evenodd" clip-rule="evenodd" d="M3.23218 27.9116C6.34033 19.9805 9.8916 10.9189 23.25 7.89453C23.25 7.89453 7.75 7.89453 2.71252 22.5C2.71252 22.5 0 19.7368 0 16.5791C0 13.4209 3.09998 6.71045 10.85 5.13135C13.054 4.68262 15.5087 4.32959 17.9288 3.98096C24.0189 3.10449 29.8907 2.25977 31 0C31 0 26.35 26.8423 9.30005 26.8423C8.74194 26.8423 7.96704 26.6367 7.22302 26.3687L5.75049 30L2.82104 28.958C2.95776 28.6118 3.09448 28.2627 3.23218 27.9116ZM40.36 26.9038C40.8933 27.3306 41.7679 27.5439 42.984 27.5439C43.1042 27.5439 43.2991 27.5371 43.5685 27.5234C43.777 27.5132 44.0302 27.4985 44.328 27.48C44.2 26.7334 44.136 25.688 44.136 24.3442C44.136 21.3359 44.4347 17.5918 45.032 13.1118C45.6506 8.61084 45.96 5.95459 45.96 5.14404V5.08008C47.7307 4.3335 49.3307 4.22656 50.76 4.75977C52.4453 5.42139 53.288 6.78662 53.288 8.85596C53.288 10.2642 52.7974 11.6079 51.816 12.8882C50.3867 14.6802 48.4667 15.5762 46.056 15.5762H45.8L45.896 16.9199C46.472 17.0054 47.08 17.0479 47.72 17.0479C49.2346 17.0479 50.6107 16.7812 51.848 16.248C53.1067 15.7148 54.1306 15.0215 54.92 14.168C56.5414 12.376 57.3521 10.3706 57.3521 8.15186C57.3521 6.35986 56.776 4.85596 55.624 3.64014C54.4933 2.40283 52.936 1.78418 50.952 1.78418C48.9894 1.78418 47.1866 2.23193 45.5439 3.12793C44.8613 1.5918 43.432 0.73877 41.256 0.567871C41.5547 1.22949 41.704 2.64795 41.704 4.82422C41.704 6.97852 41.3413 10.5947 40.616 15.6719C39.912 20.728 39.5601 23.7573 39.5601 24.7598C39.5601 25.7627 39.8267 26.4775 40.36 26.9038ZM64.715 13.7842C65.803 11.9067 67.0403 10.9678 68.427 10.9678C70.0909 10.9678 70.923 12.6748 70.923 16.0879C70.923 18.4136 70.475 20.5146 69.579 22.3921C68.683 24.248 67.5204 25.1758 66.0909 25.1758C64.0857 25.1758 63.083 23.2349 63.083 19.3521C63.083 17.4961 63.627 15.6401 64.715 13.7842ZM73.675 10.52C72.7791 9.26123 71.691 8.63184 70.411 8.63184C69.131 8.63184 67.819 9.04785 66.475 9.87988C65.771 10.3281 65.0884 10.9893 64.427 11.8638C63.787 12.7388 63.243 13.7734 62.795 14.9678C63.2217 12.3013 64.5123 10.2212 66.667 8.72803C66.667 8.57861 66.5603 8.43994 66.347 8.31201C66.155 8.1626 65.9417 8.08789 65.707 8.08789C63.531 8.62109 61.7816 9.92285 60.459 11.9922C59.1364 14.04 58.475 16.4185 58.475 19.1279C58.475 21.8159 59.1577 23.8853 60.5229 25.3359C61.9097 26.7651 63.531 27.48 65.387 27.48C66.7097 27.48 67.9257 27.2349 69.035 26.7441C70.9977 25.8906 72.5123 24.3442 73.579 22.104C74.5389 20.1201 75.019 17.9438 75.019 15.5762C75.019 13.4639 74.571 11.7788 73.675 10.52ZM82.929 18.7759C83.9103 19.0107 84.913 19.1279 85.937 19.1279C87.9636 19.1279 89.6703 18.6372 91.057 17.6558C92.465 16.6748 93.1689 15.1812 93.1689 13.1758C93.1689 11.7896 92.7317 10.6694 91.8571 9.81592C90.9823 8.96289 89.6063 8.53613 87.729 8.53613C85.873 8.53613 84.177 9.11182 82.641 10.2642C81.105 11.3945 79.985 12.792 79.281 14.4561C78.577 16.0986 78.225 17.8374 78.225 19.6719C78.225 22.1255 78.897 24.0454 80.241 25.4321C81.585 26.7974 83.153 27.48 84.9449 27.48C87.9103 27.48 90.3317 26.04 92.209 23.1602C92.209 22.5415 91.825 22.1465 91.057 21.9761C90.4384 22.9575 89.713 23.7251 88.881 24.2798C88.049 24.8345 87.1743 25.1118 86.257 25.1118C85.3397 25.1118 84.5503 24.6641 83.889 23.7681C83.2277 22.8721 82.897 21.5386 82.897 19.7681C82.897 19.3198 82.9077 18.9893 82.929 18.7759ZM84.5291 12.5361C85.2756 11.1919 86.193 10.52 87.281 10.52C87.8357 10.52 88.2517 10.7227 88.5291 11.1279C88.7002 11.3481 88.8223 11.5962 88.8954 11.8726C88.9498 12.0781 88.9771 12.2993 88.9771 12.5361C88.9771 13.8799 88.5291 15.0322 87.6331 15.9922C86.7583 16.9521 85.3929 17.4321 83.537 17.4321H83.057C83.2916 15.5122 83.7823 13.8799 84.5291 12.5361ZM101.891 21.0161C102.083 19.5439 102.35 17.8589 102.691 15.96C103.033 14.0615 103.257 12.728 103.363 11.96C103.811 11.9814 104.462 11.9922 105.315 11.9922C106.169 11.9922 106.777 11.7998 107.139 11.416C107.502 11.0107 107.683 10.2959 107.683 9.27197C107.683 9.14795 107.676 8.98828 107.662 8.79248C107.651 8.65088 107.637 8.49072 107.619 8.31201C106.787 8.97314 105.475 9.3252 103.683 9.36816C103.754 8.76172 103.801 8.24365 103.825 7.81445C103.837 7.59424 103.843 7.39746 103.843 7.22412C103.843 5.94385 103.523 4.96289 102.883 4.27979C102.243 3.57617 101.219 3.14941 99.8113 3V4.05615C99.8326 4.52539 99.8433 5.11182 99.8433 5.81592C99.8433 6.52002 99.7686 7.67188 99.6193 9.27197C98.3392 9.29346 97.3579 9.51709 96.6753 9.94385C95.9926 10.3491 95.6512 11.1172 95.6512 12.248C95.6512 12.4824 95.6726 12.8345 95.7152 13.3042C96.9739 12.7495 98.158 12.376 99.2672 12.1841C99.1393 13.0586 98.8512 14.7441 98.4032 17.2402C97.9552 19.7148 97.7312 21.6665 97.7312 23.0962C97.7312 24.7173 98.0405 25.9761 98.6593 26.8721C99.278 27.7466 100.409 28.3975 102.051 28.8242C101.753 28.1626 101.603 27.064 101.603 25.5278C101.603 23.9922 101.699 22.4878 101.891 21.0161ZM116.571 10.4878C115.504 11.7896 114.587 13.8267 113.819 16.6001C114.011 15.4907 114.107 14.3389 114.107 13.144C114.107 11.9282 113.798 10.8721 113.179 9.97607C112.56 9.05859 111.472 8.35449 109.915 7.86377C110.278 9.29346 110.459 10.8613 110.459 12.5679C110.459 14.2534 110.235 16.5254 109.787 19.3838C109.339 22.2427 109.115 23.8853 109.115 24.312C109.115 25.2935 109.382 25.9976 109.915 26.4238C110.448 26.8506 111.323 27.064 112.539 27.064C112.624 27.064 112.757 27.0601 112.938 27.0518C113.166 27.041 113.471 27.0234 113.851 27C113.744 25.3999 113.691 24.4932 113.691 24.2798C113.691 22.5308 113.83 20.8882 114.107 19.3521C114.406 17.7944 114.768 16.5254 115.195 15.5439C115.622 14.5415 116.07 13.7627 116.539 13.208C117.008 12.6318 117.446 12.3442 117.851 12.3442C118.406 12.3442 118.683 12.6855 118.683 13.3682C118.683 14.5415 118.352 15.5439 117.691 16.376C118.096 16.5469 118.448 16.6318 118.747 16.6318C119.878 16.6318 120.763 16.1733 121.403 15.2559C122.064 14.3389 122.395 13.3359 122.395 12.248C122.395 11.1387 122.16 10.2427 121.691 9.56006C121.222 8.85596 120.518 8.50391 119.579 8.50391C118.662 8.50391 117.659 9.16553 116.571 10.4878ZM127.991 18.7759C128.973 19.0107 129.975 19.1279 131 19.1279C133.026 19.1279 134.733 18.6372 136.12 17.6558C137.527 16.6748 138.231 15.1812 138.231 13.1758C138.231 11.7896 137.794 10.6694 136.92 9.81592C136.045 8.96289 134.669 8.53613 132.792 8.53613C130.936 8.53613 129.24 9.11182 127.703 10.2642C126.167 11.3945 125.047 12.792 124.344 14.4561C123.64 16.0986 123.287 17.8374 123.287 19.6719C123.287 22.1255 123.959 24.0454 125.303 25.4321C126.647 26.7974 128.215 27.48 130.007 27.48C132.973 27.48 135.394 26.04 137.271 23.1602C137.271 22.5415 136.887 22.1465 136.12 21.9761C135.501 22.9575 134.776 23.7251 133.943 24.2798C133.111 24.8345 132.237 25.1118 131.319 25.1118C130.402 25.1118 129.613 24.6641 128.952 23.7681C128.29 22.8721 127.959 21.5386 127.959 19.7681C127.959 19.3198 127.97 18.9893 127.991 18.7759ZM129.592 12.5361C130.338 11.1919 131.255 10.52 132.344 10.52C132.898 10.52 133.314 10.7227 133.592 11.1279C133.89 11.5122 134.04 11.9814 134.04 12.5361C134.04 13.8799 133.592 15.0322 132.696 15.9922C131.821 16.9521 130.455 17.4321 128.599 17.4321H128.12C128.354 15.5122 128.845 13.8799 129.592 12.5361ZM145.898 18.7759C146.879 19.0107 147.882 19.1279 148.906 19.1279C150.932 19.1279 152.639 18.6372 154.026 17.6558C155.434 16.6748 156.138 15.1812 156.138 13.1758C156.138 11.7896 155.7 10.6694 154.826 9.81592C153.951 8.96289 152.575 8.53613 150.698 8.53613C148.842 8.53613 147.146 9.11182 145.61 10.2642C144.074 11.3945 142.954 12.792 142.25 14.4561C141.546 16.0986 141.194 17.8374 141.194 19.6719C141.194 22.1255 141.866 24.0454 143.21 25.4321C144.554 26.7974 146.122 27.48 147.914 27.48C150.879 27.48 153.3 26.04 155.178 23.1602C155.178 22.5415 154.794 22.1465 154.026 21.9761C153.407 22.9575 152.682 23.7251 151.85 24.2798C151.018 24.8345 150.143 25.1118 149.226 25.1118C148.308 25.1118 147.519 24.6641 146.858 23.7681C146.196 22.8721 145.866 21.5386 145.866 19.7681C145.866 19.3198 145.876 18.9893 145.898 18.7759ZM147.498 12.5361C148.244 11.1919 149.162 10.52 150.25 10.52C150.804 10.52 151.22 10.7227 151.498 11.1279C151.796 11.5122 151.946 11.9814 151.946 12.5361C151.946 13.8799 151.498 15.0322 150.602 15.9922C149.727 16.9521 148.362 17.4321 146.506 17.4321H146.026C146.26 15.5122 146.751 13.8799 147.498 12.5361Z" fill="white"/>
</svg>
